<?xml version="1.0" encoding="utf-8" ?>
<svg baseProfile="full" height="200mm" version="1.1" viewBox="0,0,200,200" width="200mm" xmlns="http://www.w3.org/2000/svg" xmlns:ev="http://www.w3.org/2001/xml-events" xmlns:xlink="http://www.w3.org/1999/xlink"><defs /><rect fill="#1a1a1a" height="200" width="200" x="0" y="0" /><text alignment-baseline="middle" fill="#e1ed5e" style="dominant-baseline: central; font-size:9.0px; font-family:Arial;" text-anchor="middle" x="100.0" y="100.0">2020</text><line stroke="#e1ed5e" stroke-width="0.3" x1="100.0" x2="100.0" y1="15.0" y2="10.0" /><path d="M 100.0 14.0 a86.0,86.0 0 0,1 42.35913384403234,11.155469271406648" fill="none" id="id49" stroke="none" /><text fill="#e1ed5e" style="font-size:6.75px; font-family:Arial;" text-anchor="middle"><textPath startOffset="22.145653131862478" xlink:href="#id49">January</textPath></text><line stroke="#e1ed5e" stroke-width="0.3" x1="143.13028292997686" x2="145.6673583964461" y1="26.7553504044142" y2="22.446841604673864" /><path d="M 143.63769802327073 25.89364864446614 a86.0,86.0 0 0,1 29.32050498858742,28.57503671076993" fill="none" id="id50" stroke="none" /><text fill="#e1ed5e" style="font-size:6.75px; font-family:Arial;" text-anchor="middle"><textPath startOffset="20.669276256404974" xlink:href="#id50">February</textPath></text><path d="M 112.16784306229584 82.88440491214696 l 7.9225404461421105 -11.14404530442078 a34.67319980354783,34.67319980354783 0 0,0 0.4821539416063606,0.34904227107129854 l -8.11267539812244 11.006402261976408" fill="#ff7f0b" stroke="none" /><path d="M 113.03279911837588 83.53348406188908 l 6.54073614042058 -8.264006444429516 a31.539214001631073,31.539214001631073 0 0,0 0.42164809688373983,0.33964985994684266 l -6.681635007659579 8.150508290689265" fill="#ff5107" stroke="none" /><line stroke="#e1ed5e" stroke-width="0.3" x1="172.87174338648825" x2="177.1583165268699" y1="56.24261187166439" y2="53.66864786411523" /><path d="M 173.72905801456457 55.72781907015455 a86.0,86.0 0 0,1 12.242430191666344,42.057860355516425" fill="none" id="id51" stroke="none" /><text fill="#e1ed5e" style="font-size:6.75px; font-family:Arial;" text-anchor="middle"><textPath startOffset="22.145653131862474" xlink:href="#id51">March</textPath></text><line stroke="#e1ed5e" stroke-width="0.3" x1="184.99686870605535" x2="189.99668451229388" y1="99.2704041080226" y2="99.22748670261217" /><path d="M 185.99683186730306 99.26182062694052 a86.0,86.0 0 0,1 -10.086455211305974,41.156179273409016" fill="none" id="id52" stroke="none" /><text fill="#e1ed5e" style="font-size:6.75px; font-family:Arial;" text-anchor="middle"><textPath startOffset="21.40746469413373" xlink:href="#id52">April</textPath></text><line stroke="#e1ed5e" stroke-width="0.3" x1="174.33088141563837" x2="178.70328620479359" y1="141.23008692659167" y2="143.65538615756765" /><path d="M 175.20536237346943 141.71514677278685 a86.0,86.0 0 0,1 -30.301960400862466,31.631185727798858" fill="none" id="id53" stroke="none" /><text fill="#e1ed5e" style="font-size:6.75px; font-family:Arial;" text-anchor="middle"><textPath startOffset="22.145653131862474" xlink:href="#id53">May</textPath></text><line stroke="#e1ed5e" stroke-width="0.3" x1="143.1302829299769" x2="145.66735839644613" y1="173.24464959558577" y2="177.55315839532614" /><path d="M 143.63769802327073 174.10635135553383 a86.0,86.0 0 0,1 -40.68552437913181,11.842963189579606" fill="none" id="id54" stroke="none" /><text fill="#e1ed5e" style="font-size:6.75px; font-family:Arial;" text-anchor="middle"><textPath startOffset="21.407464694133747" xlink:href="#id54">June</textPath></text><path d="M 108.73861861582097 119.09545874513695 l 3.73584486446596 8.163495241511866 a29.977705241850146,29.977705241850146 0 0,0 -0.4697743337255952,0.2101240841871648 l -3.595157127884738 -8.226423076608882" fill="#ff3905" stroke="none" /><path d="M 104.9986988182912 120.39639698878246 l 2.560828500793893 10.449054168107727 a31.75827939860867,31.75827939860867 0 0,0 -0.5306170996912852,0.1252241907316876 l -2.3810792473627282 -10.491474502485639" fill="#ff5407" stroke="none" /><path d="M 104.64783097203109 120.47920084513623 l 3.9943604557196455 17.59988917686602 a39.04746559736803,39.04746559736803 0 0,0 -0.6549516628173498,0.142743666546844 l -3.6916463762831597 -17.665864301546584" fill="#ffbc11" stroke="none" /><path d="M 104.29559338865022 120.5559693870025 l 4.600490029633851 22.01501018793569 a43.490557620647664,43.490557620647664 0 0,0 -0.7320983316722522,0.1464401699440278 l -4.221895212430639 -22.09073975454258" fill="#fff817" stroke="none" /><path d="M 103.94208987418118 120.62667999033965 l 5.04122849904144 26.377837727382328 a47.855247307587064,47.855247307587064 0 0,0 -0.8082187636821628,0.1472843819264546 l -4.58767500180822 -26.460490283240148" fill="#ceff1d" stroke="none" /><path d="M 103.58742460773223 120.69131181640829 l 6.6782110595654895 38.51814672604538 a60.09278872330884,60.09278872330884 0 0,0 -1.017921754912362,0.1674986374061668 l -6.016011801600055 -38.627111361947215" fill="#41ff2d" stroke="none" /><path d="M 103.2317021107853 120.74984581791261 l 9.695106332355914 62.24953745373786 a84.0,84.0 0 0,0 -1.426699577569258,0.20967570680447034 l -8.625081649178972 -62.406794233841204" fill="#4dd2ff" stroke="none" /><line stroke="#e1ed5e" stroke-width="0.3" x1="101.45913802915013" x2="101.54496967792366" y1="184.9874750549273" y2="189.98673829345242" /><path d="M 101.47630435890484 185.9873277026323 a86.0,86.0 0 0,1 -42.54439059252881,-10.42667462771756" fill="none" id="id55" stroke="none" /><text fill="#e1ed5e" style="font-size:6.75px; font-family:Arial;" text-anchor="middle"><textPath startOffset="22.145653131862474" xlink:href="#id55">July</textPath></text><path d="M 93.95794788825049 120.11202640906438 l -14.516647099326002 48.32119691006342 a71.45464412546671,71.45464412546671 0 0,0 -1.1717179061632552,-0.3630012024936367 l 15.34400563836089 -48.064879119763134" fill="#3cffa7" stroke="none" /><path d="M 92.93061703081489 119.77432235084164 l -8.685101115439588 24.29377356623156 a46.799581691817046,46.799581691817046 0 0,0 -0.7541660067885797,-0.27694020398043695 l 9.100856273882286 -24.141102513242405" fill="#dbff1b" stroke="none" /><line stroke="#e1ed5e" stroke-width="0.3" x1="58.13341422392154" x2="55.67067388415222" y1="173.97424548756322" y2="178.32567169271397" /><path d="M 57.64086615596768 174.84453072859336 a86.0,86.0 0 0,1 -31.369924170532247,-30.572349798747897" fill="none" id="id56" stroke="none" /><text fill="#e1ed5e" style="font-size:6.75px; font-family:Arial;" text-anchor="middle"><textPath startOffset="22.145653131862474" xlink:href="#id56">August</textPath></text><line stroke="#e1ed5e" stroke-width="0.3" x1="26.387840678322732" x2="22.057713659400548" y1="142.50000000000003" y2="145.00000000000006" /><path d="M 25.521815274538298 143.00000000000003 a86.0,86.0 0 0,1 -11.493303480769221,-40.785679425670985" fill="none" id="id57" stroke="none" /><text fill="#e1ed5e" style="font-size:6.75px; font-family:Arial;" text-anchor="middle"><textPath startOffset="21.40746469413373" xlink:href="#id57">September</textPath></text><line stroke="#e1ed5e" stroke-width="0.3" x1="15.003131293944662" x2="10.003315487706104" y1="100.72959589197737" y2="100.7725132973878" /><path d="M 14.003168132696942 100.73817937305945 a86.0,86.0 0 0,1 10.791469493833604,-42.45332614584628" fill="none" id="id58" stroke="none" /><text fill="#e1ed5e" style="font-size:6.75px; font-family:Arial;" text-anchor="middle"><textPath startOffset="22.145653131862435" xlink:href="#id58">October</textPath></text><line stroke="#e1ed5e" stroke-width="0.3" x1="26.387840678322718" x2="22.05771365940052" y1="57.49999999999999" y2="54.99999999999999" /><path d="M 25.521815274538284 56.99999999999999 a86.0,86.0 0 0,1 29.574782752854787,-30.34633250058573" fill="none" id="id59" stroke="none" /><text fill="#e1ed5e" style="font-size:6.75px; font-family:Arial;" text-anchor="middle"><textPath startOffset="21.40746469413373" xlink:href="#id59">November</textPath></text><path d="M 87.25179093698888 83.31218511350988 l -8.03999764450412 -10.524615004047511 a34.244209417970325,34.244209417970325 0 0,0 0.4702007348945718,-0.35284739735408 l 7.858143920698797 10.661081428665593" fill="#ff780b" stroke="none" /><path d="M 87.54013794807813 83.09580414077388 l -5.83185481036929 -7.912031090412154 a30.829077601935797,30.829077601935797 0 0,0 0.4286988615438014,-0.310344915444224 l 5.695174938451521 8.010976777229457" fill="#ff4606" stroke="none" /><path d="M 88.12776184653039 82.6780497279521 l -15.956490644505802 -23.280996715834178 a49.22435830574157,49.22435830574157 0 0,0 0.7011042040614808,-0.4717341977790533 l 15.554490152347332 23.55148058767034" fill="#bdff1f" stroke="none" /><path d="M 88.4268655584334 82.4767994020092 l -12.242570837685635 -18.536812624708258 a43.21472401357474,43.21472401357474 0 0,0 0.6225273767692228,-0.4035147244594198 l 11.922557828659386 18.744241190871584" fill="#fff517" stroke="none" /><line stroke="#e1ed5e" stroke-width="0.3" x1="56.869717070023135" x2="54.33264160355391" y1="26.7553504044142" y2="22.446841604673864" /><path d="M 56.362301976729285 25.89364864446614 a86.0,86.0 0 0,1 42.16139366436587,-11.88097634709845" fill="none" id="id60" stroke="none" /><text fill="#e1ed5e" style="font-size:6.75px; font-family:Arial;" text-anchor="middle"><textPath startOffset="22.145653131862474" xlink:href="#id60">December</textPath></text><path d="M 89.97174638481275 81.54914285379989 l -5.64367710238615 -10.383730207790821 a32.818330857789746,32.818330857789746 0 0,0 0.49729332981741403,-0.2647806879695755 l 5.464594956782174 10.479081363482972" fill="#ff6409" stroke="none" /><path d="M 90.28995756902619 81.37971332152246 l -5.46493019569786 -10.47972422830671 a32.81905588214257,32.81905588214257 0 0,0 0.5017764501341292,-0.25621063073724676 l 5.284226523850149 10.57199281071679" fill="#ff6409" stroke="none" /><path d="M 92.25597844496254 80.48000691201159 l -1.9420858789202458 -4.895325079272673 a26.26648888661672,26.26648888661672 0 0,0 0.4205486728850473,-0.16267726108639452 l 1.857764943541669 4.927942228497108" fill="#ff0000" stroke="none" /><path d="M 92.592206182469 80.34994680014964 l -2.2300031702055634 -5.9153483492848205 a27.321729212210336,27.321729212210336 0 0,0 0.4402842648085867,-0.16167848061023715 l 2.12812975374285 5.9527576789037795" fill="#ff1001" stroke="none" /><path d="M 93.27111125876988 80.10723608172694 l -2.5814958696404267 -7.63173383683648 a29.056517999811422,29.056517999811422 0 0,0 0.4738665113363795,-0.15576933446114963 l 2.450106620656286 7.6749240926996585" fill="#ff2b04" stroke="none" /><path d="M 93.95794788825049 79.88797359093562 l -1.525479169818299 -5.07782402111384 a26.30201692631684,26.30201692631684 0 0,0 0.4335323720577914,-0.12619495513753604 l 1.4380867853788832 5.103262670553897" fill="#ff0100" stroke="none" /><path d="M 95.00130118170881 79.60360301121753 l -2.8721259091353373 -11.71925382464193 a33.06606884798487,33.06606884798487 0 0,0 0.5524676362371639,-0.1303808578605875 l 2.6705261191582674 11.76683082614875" fill="#ff6709" stroke="none" /><path d="M 97.84075906011542 79.11130261209362 l -1.2198636910118081 -11.801074639406522 a32.86395507701764,32.86395507701764 0 0,0 0.5616613250493746,-0.05318991143925405 l 1.017102802577418 11.820276306350959" fill="#ff6409" stroke="none" /><path d="M 98.1996594967304 79.07731436759882 l -0.6046437078054627 -7.02687641312747 a28.052842415562388,28.052842415562388 0 0,0 0.4801457785160959,-0.037166319911277085 l 0.48392893451414964 7.0362205000338" fill="#ff1c02" stroke="none" /><path d="M 98.5590905019552 79.04949213459386 l -0.8563432160427655 -12.45104241976009 a33.48045596291769,33.48045596291769 0 0,0 0.5737205319731233,-0.03451360252974265 l 0.6424783319371583 12.463908000114527" fill="#ff6d0a" stroke="none" /><path d="M 99.27912038922189 79.0123766808444 l -0.19980751082252096 -5.817177668480253 a26.8206081355857,26.8206081355857 0 0,0 0.46027571812337975,-0.011855069788485065 l 0.09991847862839731 5.819750455618784" fill="#ff0901" stroke="none" /><path d="M 99.63950707515114 79.00309439819443 l -0.09224710004410698 -5.372931112250004 a26.373722942658155,26.373722942658155 0 0,0 0.45274002489295784,-0.0038862286025851418 l 1.316182520246201e-15 5.373722942658155" fill="#ff0200" stroke="none" /></svg>