<?xml version="1.0" encoding="utf-8" ?>
<svg baseProfile="full" height="200mm" version="1.1" viewBox="0,0,200,200" width="200mm" xmlns="http://www.w3.org/2000/svg" xmlns:ev="http://www.w3.org/2001/xml-events" xmlns:xlink="http://www.w3.org/1999/xlink"><defs /><rect fill="#1a1a1a" height="200" width="200" x="0" y="0" /><text alignment-baseline="middle" fill="#e1ed5e" style="dominant-baseline: central; font-size:9.0px; font-family:Arial;" text-anchor="middle" x="100.0" y="100.0">2017</text><line stroke="#e1ed5e" stroke-width="0.3" x1="100.0" x2="100.0" y1="15.0" y2="10.0" /><path d="M 100.0 14.0 a86.0,86.0 0 0,1 42.46469731375804,11.215312516191453" fill="none" id="id13" stroke="none" /><text fill="#e1ed5e" style="font-size:6.75px; font-family:Arial;" text-anchor="middle"><textPath startOffset="22.20632615414155" xlink:href="#id13">January</textPath></text><path d="M 100.0 79.0 l 0.0 -20.10019582245431 a41.10019582245431,41.10019582245431 0 0,0 0.7074723087664548,0.0060894375185320615 l -0.3459918294939265 20.097217761544336" fill="#fffb17" stroke="none" /><path d="M 105.01212808612495 79.60689891045804 l 3.533704534424582 -14.377763806672354 a35.80564621409921,35.80564621409921 0 0,0 0.5972571239851256,0.15225413938840857 l -3.780670547094733 14.314806671115077" fill="#ffb811" stroke="none" /><path d="M 107.76421540070413 80.48803036053334 l 5.4615217153311875 -13.725153205456618 a35.77186684073107,35.77186684073107 0 0,0 0.5701628974537609,0.2325837618091631 l -5.696968482373336 13.629108557463875" fill="#ffb711" stroke="none" /><line stroke="#e1ed5e" stroke-width="0.3" x1="143.23703022742887" x2="145.7803849466894" y1="26.81831364943548" y2="22.513508569990506" /><path d="M 143.74570117128098 25.957352633546492 a86.0,86.0 0 0,1 28.547481713284135,27.462654790039103" fill="none" id="id14" stroke="none" /><text fill="#e1ed5e" style="font-size:6.75px; font-family:Arial;" text-anchor="middle"><textPath startOffset="19.985693538727396" xlink:href="#id14">February</textPath></text><line stroke="#e1ed5e" stroke-width="0.3" x1="172.23445277983987" x2="176.4835382374775" y1="55.19839476539836" y2="52.563006222186495" /><path d="M 173.08426987136738 54.67131705675599 a86.0,86.0 0 0,1 12.851231095245387,41.99856678651699" fill="none" id="id15" stroke="none" /><text fill="#e1ed5e" style="font-size:6.75px; font-family:Arial;" text-anchor="middle"><textPath startOffset="22.20632615414155" xlink:href="#id15">March</textPath></text><path d="M 118.3937258080291 89.86733742301442 l 27.21238873622582 -14.990652565755767 a52.068211488250654,52.068211488250654 0 0,0 0.42569953336727245,0.7887565827752321 l -27.46639636881156 14.520014999648076" fill="#84ff25" stroke="none" /><path d="M 120.98425023603335 99.18683210126433 l 14.842971854292337 -0.5751851077824891 a35.85411227154047,35.85411227154047 0 0,0 0.01859002521114945,0.6169124333944405 l -14.850673573959131 0.31960252696304947" fill="#ffb811" stroke="none" /><line stroke="#e1ed5e" stroke-width="0.3" x1="184.98032266829074" x2="189.97916517819016" y1="98.17113171792111" y2="98.06355123074" /><path d="M 185.9800911702706 98.14961562048488 a86.0,86.0 0 0,1 -9.607161424134198,41.387399972396054" fill="none" id="id16" stroke="none" /><text fill="#e1ed5e" style="font-size:6.75px; font-family:Arial;" text-anchor="middle"><textPath startOffset="21.466115282336823" xlink:href="#id16">April</textPath></text><line stroke="#e1ed5e" stroke-width="0.3" x1="174.80103733775053" x2="179.2010983576182" y1="140.37084112569926" y2="142.7455964860345" /><path d="M 175.68104954172406 140.8457921977663 a86.0,86.0 0 0,1 -30.038265399797805,32.042727171017184" fill="none" id="id17" stroke="none" /><text fill="#e1ed5e" style="font-size:6.75px; font-family:Arial;" text-anchor="middle"><textPath startOffset="22.206326154141568" xlink:href="#id17">May</textPath></text><line stroke="#e1ed5e" stroke-width="0.3" x1="143.8653032363475" x2="146.44561519142675" y1="172.8068346515853" y2="177.08958963109032" /><path d="M 144.38136562736335 173.6633856474863 a86.0,86.0 0 0,1 -40.68145358897372,12.25698825130547" fill="none" id="id18" stroke="none" /><text fill="#e1ed5e" style="font-size:6.75px; font-family:Arial;" text-anchor="middle"><textPath startOffset="21.466115282336833" xlink:href="#id18">June</textPath></text><line stroke="#e1ed5e" stroke-width="0.3" x1="102.19456741930631" x2="102.32365962044197" y1="184.97166512339345" y2="189.96999836594603" /><path d="M 102.22038585953345 185.97133177190398 a86.0,86.0 0 0,1 -42.740103519485714,-10.115201625700543" fill="none" id="id19" stroke="none" /><text fill="#e1ed5e" style="font-size:6.75px; font-family:Arial;" text-anchor="middle"><textPath startOffset="22.20632615414155" xlink:href="#id19">July</textPath></text><line stroke="#e1ed5e" stroke-width="0.3" x1="58.666819895761336" x2="56.23545636021788" y1="174.27360380694188" y2="178.64263932499728" /><path d="M 58.180547188652646 175.14741091055294 a86.0,86.0 0 0,1 -31.652253787137756,-30.449443065178592" fill="none" id="id20" stroke="none" /><text fill="#e1ed5e" style="font-size:6.75px; font-family:Arial;" text-anchor="middle"><textPath startOffset="22.20632615414155" xlink:href="#id20">August</textPath></text><line stroke="#e1ed5e" stroke-width="0.3" x1="26.63291911575756" x2="22.317208475507996" y1="142.92168965132927" y2="145.44649492493687" /><path d="M 25.769776987707644 143.4266507060508 a86.0,86.0 0 0,1 -11.730757126820373,-40.83630448921669" fill="none" id="id21" stroke="none" /><text fill="#e1ed5e" style="font-size:6.75px; font-family:Arial;" text-anchor="middle"><textPath startOffset="21.46611528233685" xlink:href="#id21">September</textPath></text><path d="M 79.4281124754447 104.21870165774334 l -8.80645213104739 1.8059497048941853 a29.989719321148826,29.989719321148826 0 0,0 -0.0993517515815845,-0.5065924408696418 l 8.836233815604642 -1.6540935369565888" fill="#ff6a09" stroke="none" /><path d="M 79.29508885075956 103.50808413554451 l -4.390429686066092 0.7438813245270625 a25.45300261096606,25.45300261096606 0 0,0 -0.06947245028086002,-0.43260501421555475 l 4.402583890708243 -0.6681970806182941" fill="#ff2a04" stroke="none" /><line stroke="#e1ed5e" stroke-width="0.3" x1="15.007084014347285" x2="10.007500721073583" y1="101.09737516637583" y2="101.16192664675087" /><path d="M 14.007167355692545 101.11028546245083 a86.0,86.0 0 0,1 10.666146001902534,-42.60595125391555" fill="none" id="id22" stroke="none" /><text fill="#e1ed5e" style="font-size:6.75px; font-family:Arial;" text-anchor="middle"><textPath startOffset="22.20632615414155" xlink:href="#id22">October</textPath></text><path d="M 79.00175016825051 100.2711162175752 l -15.102527130947772 0.19499434783266986 a36.10378590078329,36.10378590078329 0 0,0 -0.0026746075040500698,-0.6214845906712829 l 15.103646035741324 0.06499972104228838" fill="#ffbc11" stroke="none" /><path d="M 79.26566170972629 96.67025291283419 l -14.608195911242357 -2.345944061645028 a35.79536553524804,35.79536553524804 0 0,0 0.10293407099413308,-0.6075227137710576 l 14.565649978728 2.5970525637319137" fill="#ffb811" stroke="none" /><path d="M 79.46518482838121 95.60439243477599 l -14.562408558388745 -3.1171760102134063 a35.892297650130544,35.892297650130544 0 0,0 0.13452025183137384,-0.6030279121893694 l 14.506593919555334 3.367382091952735" fill="#ffb911" stroke="none" /><path d="M 80.2630227832202 92.82701384747504 l -14.120846484123748 -5.131922440810121 a36.02447780678851,36.02447780678851 0 0,0 0.21682517601919135,-0.5809836730361545 l 14.030416719602929 5.374229250875617" fill="#ffbb11" stroke="none" /><path d="M 81.10775173730289 90.83032412892265 l -56.676744788091334 -27.50902761323202 a84.0,84.0 0 0,0 0.6425599481863489,-1.295361646004154 l 56.19482482695157 28.480548847735136" fill="#4dd2ff" stroke="none" /><line stroke="#e1ed5e" stroke-width="0.3" x1="26.266209847984243" x2="21.928928074336255" y1="57.711370442889674" y2="55.22380399835377" /><path d="M 25.398753493254645 57.213857153982495 a86.0,86.0 0 0,1 29.58750427330803,-30.492523968695096" fill="none" id="id23" stroke="none" /><text fill="#e1ed5e" style="font-size:6.75px; font-family:Arial;" text-anchor="middle"><textPath startOffset="21.46611528233685" xlink:href="#id23">November</textPath></text><line stroke="#e1ed5e" stroke-width="0.3" x1="56.762969772571076" x2="54.21961505331055" y1="26.818313649435495" y2="22.513508569990535" /><path d="M 56.25429882871897 25.957352633546506 a86.0,86.0 0 0,1 42.265352541879196,-11.944610805530505" fill="none" id="id24" stroke="none" /><text fill="#e1ed5e" style="font-size:6.75px; font-family:Arial;" text-anchor="middle"><textPath startOffset="22.20632615414155" xlink:href="#id24">December</textPath></text><path d="M 94.63758080256005 79.69619591428918 l -0.3986561642259421 -1.5094375053462294 a22.56119451697128,22.56119451697128 0 0,0 0.3763326619020842,-0.09593557491509558 l 0.3726146136388585 1.5160760764301882" fill="#ff0000" stroke="none" /></svg>