<?xml version="1.0" encoding="utf-8" ?>
<svg baseProfile="full" height="200mm" version="1.1" viewBox="0,0,200,200" width="200mm" xmlns="http://www.w3.org/2000/svg" xmlns:ev="http://www.w3.org/2001/xml-events" xmlns:xlink="http://www.w3.org/1999/xlink"><defs /><rect fill="#1a1a1a" height="200" width="200" x="0" y="0" /><text alignment-baseline="middle" fill="#e1ed5e" style="dominant-baseline: central; font-size:9.0px; font-family:Arial;" text-anchor="middle" x="100.0" y="100.0">2016</text><line stroke="#e1ed5e" stroke-width="0.3" x1="100.0" x2="100.0" y1="15.0" y2="10.0" /><path d="M 100.0 14.0 a86.0,86.0 0 0,1 42.35913384403234,11.155469271406648" fill="none" id="id1" stroke="none" /><text fill="#e1ed5e" style="font-size:6.75px; font-family:Arial;" text-anchor="middle"><textPath startOffset="22.145653131862478" xlink:href="#id1">January</textPath></text><line stroke="#e1ed5e" stroke-width="0.3" x1="143.13028292997686" x2="145.6673583964461" y1="26.7553504044142" y2="22.446841604673864" /><path d="M 143.63769802327073 25.89364864446614 a86.0,86.0 0 0,1 29.32050498858742,28.57503671076993" fill="none" id="id2" stroke="none" /><text fill="#e1ed5e" style="font-size:6.75px; font-family:Arial;" text-anchor="middle"><textPath startOffset="20.669276256404974" xlink:href="#id2">February</textPath></text><line stroke="#e1ed5e" stroke-width="0.3" x1="172.87174338648825" x2="177.1583165268699" y1="56.24261187166439" y2="53.66864786411523" /><path d="M 173.72905801456457 55.72781907015455 a86.0,86.0 0 0,1 12.242430191666344,42.057860355516425" fill="none" id="id3" stroke="none" /><text fill="#e1ed5e" style="font-size:6.75px; font-family:Arial;" text-anchor="middle"><textPath startOffset="22.145653131862474" xlink:href="#id3">March</textPath></text><line stroke="#e1ed5e" stroke-width="0.3" x1="184.99686870605535" x2="189.99668451229388" y1="99.2704041080226" y2="99.22748670261217" /><path d="M 185.99683186730306 99.26182062694052 a86.0,86.0 0 0,1 -10.086455211305974,41.156179273409016" fill="none" id="id4" stroke="none" /><text fill="#e1ed5e" style="font-size:6.75px; font-family:Arial;" text-anchor="middle"><textPath startOffset="21.40746469413373" xlink:href="#id4">April</textPath></text><line stroke="#e1ed5e" stroke-width="0.3" x1="174.33088141563837" x2="178.70328620479359" y1="141.23008692659167" y2="143.65538615756765" /><path d="M 175.20536237346943 141.71514677278685 a86.0,86.0 0 0,1 -30.301960400862466,31.631185727798858" fill="none" id="id5" stroke="none" /><text fill="#e1ed5e" style="font-size:6.75px; font-family:Arial;" text-anchor="middle"><textPath startOffset="22.145653131862474" xlink:href="#id5">May</textPath></text><line stroke="#e1ed5e" stroke-width="0.3" x1="143.1302829299769" x2="145.66735839644613" y1="173.24464959558577" y2="177.55315839532614" /><path d="M 143.63769802327073 174.10635135553383 a86.0,86.0 0 0,1 -40.68552437913181,11.842963189579606" fill="none" id="id6" stroke="none" /><text fill="#e1ed5e" style="font-size:6.75px; font-family:Arial;" text-anchor="middle"><textPath startOffset="21.407464694133747" xlink:href="#id6">June</textPath></text><path d="M 104.29559338865022 120.5559693870025 l 3.5013060980558333 16.755017166272474 a38.11694320357371,38.11694320357371 0 0,0 -0.641641589680007,0.12834628815676852 l -3.213168022844868 -16.812652851092103" fill="#ffa80f" stroke="none" /><path d="M 103.94208987418118 120.62667999033965 l 3.036440636972993 15.88794049032544 a37.17549457562221,37.17549457562221 0 0,0 -0.6278503185254419,0.11441524282986427 l -2.7632555848964935 -15.937723907086667" fill="#ff9b0e" stroke="none" /><path d="M 103.58742460773223 120.69131181640829 l 2.8651320335525776 16.525320190322255 a37.77185705169113,37.77185705169113 0 0,0 -0.6398237764166661,0.10528275892785714 l -2.581030754082839 -16.57206894774578" fill="#ffa40f" stroke="none" /><path d="M 102.875027216393 120.80226474461374 l 1.3833889732994993 10.009513476348921 a31.104658583280155,31.104658583280155 0 0,0 -0.5295526326684814,0.06856119031198718 l -1.2113585187402425 -10.031786262861303" fill="#ff4106" stroke="none" /><path d="M 102.51750503828377 120.84855314841334 l 2.089352458384198 17.30283558998823 a38.42852584556478,38.42852584556478 0 0,0 -0.6555981507081737,0.07346114023373394 l -1.7920184060752251 -17.336152490728935" fill="#ffad10" stroke="none" /><path d="M 101.80034050326958 120.92268563240118 l 1.4694546928409657 17.077290953312776 a38.14039566049777,38.14039566049777 0 0,0 -0.6528019405677593,0.05053099880796255 l -1.1760837574979706 -17.09999971911579" fill="#ffa90f" stroke="none" /><path d="M 101.44090949804482 120.95050786540614 l 1.170566554569911 17.019780799401406 a38.05998723675813,38.05998723675813 0 0,0 -0.6521953030911288,0.039234449890156634 l -0.8782268993463171 -17.037367227116253" fill="#ffa80f" stroke="none" /><path d="M 101.08105385017728 120.97215588758144 l 0.8461471265108075 16.415028204287577 a37.436821952776,37.436821952776 0 0,0 -0.6420847082077744,0.027573880090900647 l -0.5642366577022034 -16.427134652804305" fill="#ff9f0e" stroke="none" /><line stroke="#e1ed5e" stroke-width="0.3" x1="101.45913802915013" x2="101.54496967792366" y1="184.9874750549273" y2="189.98673829345242" /><path d="M 101.47630435890484 185.9873277026323 a86.0,86.0 0 0,1 -42.54439059252881,-10.42667462771756" fill="none" id="id7" stroke="none" /><text fill="#e1ed5e" style="font-size:6.75px; font-family:Arial;" text-anchor="middle"><textPath startOffset="22.145653131862474" xlink:href="#id7">July</textPath></text><path d="M 100.0 121.0 l 2.0514983074421195e-15 16.75175494575622 a37.75175494575622,37.75175494575622 0 0,0 -0.6480590742177514,-0.005562807730518917 l 0.2875661493688972 -16.749286536220133" fill="#ffa30f" stroke="none" /><path d="M 99.27912038922189 120.98762331915562 l -0.5649267147642079 16.447224911246387 a37.45692405871091,37.45692405871091 0 0,0 -0.6424294825275403,-0.02758868618366885 l 0.8471819578925869 -16.43510365663689" fill="#ff9f0e" stroke="none" /><path d="M 98.19965949673042 120.92268563240118 l -1.473475874564928 17.124023180315586 a38.18730057434588,38.18730057434588 0 0,0 -0.6526399452038283,-0.061805681357995565 l 1.7672153831537716 -17.096205743452405" fill="#ffa90f" stroke="none" /><path d="M 97.84075906011543 120.88869738790638 l -1.7255325251885463 16.692961904279358 a37.781908104658584,37.781908104658584 0 0,0 -0.6445667258531886,-0.07222504606938253 l 2.011835152642534 -16.660881097703005" fill="#ffa40f" stroke="none" /><path d="M 96.41257539226777 120.69131181640829 l -2.8788681839331685 16.604546655477613 a37.852265475430755,37.852265475430755 0 0,0 -0.6392801819304652,-0.1164981446910382 l 3.163483099414691 -16.552680336855207" fill="#ffa50f" stroke="none" /><path d="M 93.61358852112213 120.00534299687104 l -5.31046212953278 16.63494698463494 a38.46202935545628,38.46202935545628 0 0,0 -0.6272557389604185,-0.2061914202783651 l 5.595240606140942 -16.541334642954553" fill="#ffad10" stroke="none" /><path d="M 91.26138138417905 119.09545874513695 l -6.97918391684743 15.250776400471539 a37.77185705169113,37.77185705169113 0 0,0 -0.5872827440671383,-0.27487797786756274 l 7.239955374786058 -15.128722191033448" fill="#ffa40f" stroke="none" /><path d="M 90.93487009805054 118.94263497670748 l -6.942026727721353 14.506165904306947 a37.081684747925976,37.081684747925976 0 0,0 -0.5718344545576605,-0.27971288671409644 l 7.190021431541083 -14.384859267495628" fill="#ff9a0e" stroke="none" /><line stroke="#e1ed5e" stroke-width="0.3" x1="58.13341422392154" x2="55.67067388415222" y1="173.97424548756322" y2="178.32567169271397" /><path d="M 57.64086615596768 174.84453072859336 a86.0,86.0 0 0,1 -31.369924170532247,-30.572349798747897" fill="none" id="id8" stroke="none" /><text fill="#e1ed5e" style="font-size:6.75px; font-family:Arial;" text-anchor="middle"><textPath startOffset="22.145653131862474" xlink:href="#id8">August</textPath></text><path d="M 89.03521579738668 117.91015095944536 l -8.946060372074749 14.612717295246256 a38.13369495851946,38.13369495851946 0 0,0 -0.5553643723860069,-0.34658844294025276 l 9.195588873250468 -14.456993055464455" fill="#ffa90f" stroke="none" /><path d="M 88.1277618465304 117.32195027204791 l -9.54059725255685 13.920016515683686 a37.87571793235482,37.87571793235482 0 0,0 -0.5331546736248535,-0.3721833690687646 l 9.778147017355469 -13.754188330809793" fill="#ffa50f" stroke="none" /><path d="M 87.83215693770417 117.11559508785305 l -9.797559657850519 13.781494640777655 a37.909221442246334,37.909221442246334 0 0,0 -0.527152978241658,-0.38161810336850116 l 10.03269364646613 -13.611275766036089" fill="#ffa60f" stroke="none" /><path d="M 86.40962598614128 116.0094264158162 l -10.880104786461885 12.816736080817758 a37.81206126356095,37.81206126356095 0 0,0 -0.49123362976967666,-0.42431590954102494 l 11.098517895994425 -12.628076038812011" fill="#ffa40f" stroke="none" /><path d="M 85.86807049272751 115.53346607816431 l -22.638593519866475 24.883779976204174 a54.64087428206764,54.64087428206764 0 0,0 -0.6883975525910191,-0.6371704974995308 l 23.062420843771463 -24.491491732572268" fill="#81ff25" stroke="none" /><path d="M 84.3458050057657 113.99807769240083 l -25.07468374953931 22.421936827010892 a54.63752393107849,54.63752393107849 0 0,0 -0.6191964851568719,-0.7045319357774915 l 25.455891298654777 -21.9881926134221" fill="#81ff25" stroke="none" /><path d="M 83.64595745247003 113.17365903436017 l -26.461821875725743 21.31577056899823 a54.97925973197192,54.97925973197192 0 0,0 -0.5857479057389875,-0.7400733440268175 l 26.823836212106293 -20.858377281056732" fill="#7dff26" stroke="none" /><path d="M 82.576782715395 111.72311816256416 l -27.913839816848018 18.781677183865554 a54.644224633056794,54.644224633056794 0 0,0 -0.516974856605448,-0.7827658239135153 l 28.232139112374192 -18.299731481612977" fill="#81ff25" stroke="none" /><path d="M 82.18462484594161 111.11811171558189 l -28.581910106766284 17.837225815553847 a54.69112954690491,54.69112954690491 0 0,0 -0.49022012575462254,-0.8007377339474682 l 28.88389819697631 -17.34395096548182" fill="#80ff25" stroke="none" /><line stroke="#e1ed5e" stroke-width="0.3" x1="26.387840678322732" x2="22.057713659400548" y1="142.50000000000003" y2="145.00000000000006" /><path d="M 25.521815274538298 143.00000000000003 a86.0,86.0 0 0,1 -11.493303480769221,-40.785679425670985" fill="none" id="id9" stroke="none" /><text fill="#e1ed5e" style="font-size:6.75px; font-family:Arial;" text-anchor="middle"><textPath startOffset="21.40746469413373" xlink:href="#id9">September</textPath></text><path d="M 81.81346652052679 110.50000000000001 l -54.559600438419615 31.50000000000003 a84.0,84.0 0 0,0 -0.7102665399144867,-1.2549729196035138 l 55.09230034335548 -30.558770310297394" fill="#4dd2ff" stroke="none" /><path d="M 80.83023694016515 108.57439118712176 l -28.18884909420832 12.60851365215401 a51.88018506700702,51.88018506700702 0 0,0 -0.35665432944595576,-0.8160949026038565 l 28.401137305671245 -12.122756679774303" fill="#a1ff22" stroke="none" /><path d="M 80.41425534168474 107.57618678355246 l -32.32210318213355 12.502883868708787 a55.656030631780474,55.656030631780474 0 0,0 -0.3370352074783966,-0.894025930027898 l 32.53196907342639 -11.946189658486745" fill="#75ff27" stroke="none" /><path d="M 79.83685265289637 105.86919833188381 l -32.28098015765555 9.396522855847799 a54.62077217613274,54.62077217613274 0 0,0 -0.2543286413063502,-0.9025226254960852 l 32.437527291036474 -8.840992306448717" fill="#81ff25" stroke="none" /><path d="M 79.13060592940153 102.33845913500099 l -38.86541751533119 4.354951098096117 a60.108647096362475,60.108647096362475 0 0,0 -0.10609922566790508,-1.0264137628784185 l 38.93444913348076 -3.6871328129347662" fill="#43ff2d" stroke="none" /><line stroke="#e1ed5e" stroke-width="0.3" x1="15.003131293944662" x2="10.003315487706104" y1="100.72959589197737" y2="100.7725132973878" /><path d="M 14.003168132696942 100.73817937305945 a86.0,86.0 0 0,1 10.791469493833604,-42.45332614584628" fill="none" id="id10" stroke="none" /><text fill="#e1ed5e" style="font-size:6.75px; font-family:Arial;" text-anchor="middle"><textPath startOffset="22.145653131862435" xlink:href="#id10">October</textPath></text><path d="M 79.00077361379809 99.81974689727619 l -33.626234083967546 -0.2886407772876385 a54.62747287811104,54.62747287811104 0 0,0 0.016098373928486027,-0.9376495748443844 l 33.616324278440395 0.8658372681010752" fill="#81ff25" stroke="none" /><path d="M 79.0935383218832 98.0201363427161 l -33.54439774997139 -3.176689342901122 a54.69447989789406,54.69447989789406 0 0,0 0.09654254829879379,-0.9339615784510927 l 33.48492280919093 3.752055443635127" fill="#80ff25" stroke="none" /><path d="M 81.29705330413844 90.45014215332179 l -27.245789132085488 -13.911894064776448 a51.592054881940015,51.592054881940015 0 0,0 0.40952282161054565,-0.7853140080462686 l 27.002958241500004 14.377554315927203" fill="#a5ff21" stroke="none" /><line stroke="#e1ed5e" stroke-width="0.3" x1="26.387840678322718" x2="22.05771365940052" y1="57.49999999999999" y2="54.99999999999999" /><path d="M 25.521815274538284 56.99999999999999 a86.0,86.0 0 0,1 29.574782752854787,-30.34633250058573" fill="none" id="id11" stroke="none" /><text fill="#e1ed5e" style="font-size:6.75px; font-family:Arial;" text-anchor="middle"><textPath startOffset="21.40746469413373" xlink:href="#id11">November</textPath></text><path d="M 81.99639281039701 89.18935116829357 l -5.052384340541107 -3.033811629701916 a26.89326738991704,26.89326738991704 0 0,0 0.241055926821404,-0.393746740406556 l 4.99956044926431 3.1200954862330152" fill="#ff0000" stroke="none" /><path d="M 82.576782715395 88.27688183743585 l -37.87075818210889 -25.481136223161137 a66.64518187619655,66.64518187619655 0 0,0 0.6468081932466155,-0.9437124840438527 l 37.42776025204696 26.12748344227502" fill="#36ff6b" stroke="none" /><line stroke="#e1ed5e" stroke-width="0.3" x1="56.869717070023135" x2="54.33264160355391" y1="26.7553504044142" y2="22.446841604673864" /><path d="M 56.362301976729285 25.89364864446614 a86.0,86.0 0 0,1 42.16139366436587,-11.88097634709845" fill="none" id="id12" stroke="none" /><text fill="#e1ed5e" style="font-size:6.75px; font-family:Arial;" text-anchor="middle"><textPath startOffset="22.145653131862474" xlink:href="#id12">December</textPath></text><path d="M 90.28995756902619 81.37971332152246 l -15.719176858183049 -30.143594276724887 a54.99601148691768,54.99601148691768 0 0,0 0.8408439144179238,-0.42934089395188757 l 15.199405722051544 30.408993122349607" fill="#7dff26" stroke="none" /><path d="M 95.00130118170881 79.60360301121753 l -8.198248859609667 -33.4516530064907 a55.441608168474794,55.441608168474794 0 0,0 0.9263179833937518,-0.21860852184782237 l 7.622798722476009 33.58745767198476" fill="#77ff26" stroke="none" /></svg>