<?xml version="1.0" encoding="utf-8" ?>
<svg baseProfile="full" height="200mm" version="1.1" viewBox="0,0,200,200" width="200mm" xmlns="http://www.w3.org/2000/svg" xmlns:ev="http://www.w3.org/2001/xml-events" xmlns:xlink="http://www.w3.org/1999/xlink"><defs /><rect fill="#1a1a1a" height="200" width="200" x="0" y="0" /><text alignment-baseline="middle" fill="#e1ed5e" style="dominant-baseline: central; font-size:9.0px; font-family:Arial;" text-anchor="middle" x="100.0" y="100.0">2024</text><line stroke="#e1ed5e" stroke-width="0.3" x1="100.0" x2="100.0" y1="15.0" y2="10.0" /><path d="M 100.0 14.0 a86.0,86.0 0 0,1 42.35913384403234,11.155469271406648" fill="none" id="id97" stroke="none" /><text fill="#e1ed5e" style="font-size:6.75px; font-family:Arial;" text-anchor="middle"><textPath startOffset="22.145653131862478" xlink:href="#id97">January</textPath></text><line stroke="#e1ed5e" stroke-width="0.3" x1="143.13028292997686" x2="145.6673583964461" y1="26.7553504044142" y2="22.446841604673864" /><path d="M 143.63769802327073 25.89364864446614 a86.0,86.0 0 0,1 29.32050498858742,28.57503671076993" fill="none" id="id98" stroke="none" /><text fill="#e1ed5e" style="font-size:6.75px; font-family:Arial;" text-anchor="middle"><textPath startOffset="20.669276256404974" xlink:href="#id98">February</textPath></text><line stroke="#e1ed5e" stroke-width="0.3" x1="172.87174338648825" x2="177.1583165268699" y1="56.24261187166439" y2="53.66864786411523" /><path d="M 173.72905801456457 55.72781907015455 a86.0,86.0 0 0,1 12.242430191666344,42.057860355516425" fill="none" id="id99" stroke="none" /><text fill="#e1ed5e" style="font-size:6.75px; font-family:Arial;" text-anchor="middle"><textPath startOffset="22.145653131862474" xlink:href="#id99">March</textPath></text><line stroke="#e1ed5e" stroke-width="0.3" x1="184.99686870605535" x2="189.99668451229388" y1="99.2704041080226" y2="99.22748670261217" /><path d="M 185.99683186730306 99.26182062694052 a86.0,86.0 0 0,1 -10.086455211305974,41.156179273409016" fill="none" id="id100" stroke="none" /><text fill="#e1ed5e" style="font-size:6.75px; font-family:Arial;" text-anchor="middle"><textPath startOffset="21.40746469413373" xlink:href="#id100">April</textPath></text><path d="M 119.83427380445688 106.89939002012753 l 16.5033243030089 5.740712874979169 a38.47327952512738,38.47327952512738 0 0,0 -0.22233860290577614,0.6219206434364937 l -16.40234553005918 -6.023168474796584" fill="#ff800b" stroke="none" /><path d="M 119.71291397450082 107.23885506374661 l 11.824741701772849 4.342208942630034 a33.596797006187806,33.596797006187806 0 0,0 -0.20345150958580724,0.539679300669765 l -11.748459508372601 -4.544556523493958" fill="#ff3204" stroke="none" /><path d="M 119.16976305983485 108.57439118712176 l 13.76412340592116 6.156517326886749 a36.07825582518361,36.07825582518361 0 0,0 -0.25772851689100523,0.5631833219986795 l -13.6564104241751 -6.391889631100117" fill="#ff5a08" stroke="none" /><path d="M 119.0197475246899 108.90220220490707 l 8.715381014485018 4.079238380164499 a30.62278816091537,30.62278816091537 0 0,0 -0.22693052461609867,0.4741975172304019 l -8.644071231909008 -4.228248399460004" fill="#ff0000" stroke="none" /><line stroke="#e1ed5e" stroke-width="0.3" x1="174.33088141563837" x2="178.70328620479359" y1="141.23008692659167" y2="143.65538615756765" /><path d="M 175.20536237346943 141.71514677278685 a86.0,86.0 0 0,1 -30.301960400862466,31.631185727798858" fill="none" id="id101" stroke="none" /><text fill="#e1ed5e" style="font-size:6.75px; font-family:Arial;" text-anchor="middle"><textPath startOffset="22.145653131862474" xlink:href="#id101">May</textPath></text><path d="M 118.18653347947321 110.5 l 54.559600438419636 31.499999999999986 a84.0,84.0 0 0,0 -0.7317051594809385,1.242595326825802 l -54.010821568808936 -32.43194649511934" fill="#4dd2ff" stroke="none" /><path d="M 113.59037401385872 116.0094264158162 l 18.845152077991862 22.199541762413528 a50.11974263800735,50.11974263800735 0 0,0 -0.6606871965428974,0.5511687575105019 l -18.46129054728707 -22.5197727038359" fill="#d4ff1c" stroke="none" /><path d="M 113.31354834802062 116.24036423190432 l 24.804166685602663 30.257050255347174 a60.124618530047876,60.124618530047876 0 0,0 -0.8038066826188214,0.6474897650281461 l -24.281109232628587 -30.678388314168725" fill="#56ff2b" stroke="none" /><path d="M 113.03279911837588 116.46651593811092 l 29.673455506297234 37.49144167689431 a68.8134098417606,68.8134098417606 0 0,0 -0.9325529579383435,0.7251588205889992 l -29.025492603723663 -37.995301549104106" fill="#37ff79" stroke="none" /><path d="M 112.16784306229584 117.11559508785304 l 16.57896798149261 23.32039470701127 a49.61298636322599,49.61298636322599 0 0,0 -0.6983734433570946,0.48751890187816516 l -16.17619944696176 -23.60155842469456" fill="#dbff1b" stroke="none" /><path d="M 111.8722381534696 117.32195027204791 l 21.91386665074079 31.972986347269977 a59.76195825224987,59.76195825224987 0 0,0 -0.8511915973257076,0.5727196941547621 l -21.361778765318082 -32.34445571548186" fill="#5aff2a" stroke="none" /><path d="M 111.5731344415666 117.5232005979908 l 16.277394558944824 24.64604999701563 a50.53610255404326,50.53610255404326 0 0,0 -0.7279951005872055,0.4718776288133495 l -15.85191382610061 -24.921841467532875" fill="#cfff1d" stroke="none" /><path d="M 111.27062007382361 117.71928675628689 l 25.841423947429632 40.627010591791084 a69.1490724859399,69.1490724859399 0 0,0 -1.0070603251009802,0.6284801247226179 l -25.140199493538937 -41.06462651335524" fill="#38ff7d" stroke="none" /><line stroke="#e1ed5e" stroke-width="0.3" x1="143.1302829299769" x2="145.66735839644613" y1="173.24464959558577" y2="177.55315839532614" /><path d="M 143.63769802327073 174.10635135553383 a86.0,86.0 0 0,1 -40.68552437913181,11.842963189579606" fill="none" id="id102" stroke="none" /><text fill="#e1ed5e" style="font-size:6.75px; font-family:Arial;" text-anchor="middle"><textPath startOffset="21.407464694133747" xlink:href="#id102">June</textPath></text><path d="M 109.06512990194946 118.94263497670748 l 18.623980138587097 38.916955564292394 a64.14373728127404,64.14373728127404 0 0,0 -0.9973168646093811,0.46679465011780746 l -17.95317456010621 -39.230926445980735" fill="#30ff39" stroke="none" /><path d="M 106.0420521117495 120.11202640906438 l 12.76759159177145 42.49915997488864 a65.37555626271573,65.37555626271573 0 0,0 -1.0775759159677138,0.3136666443785287 l -12.03615566342213 -42.71207031356969" fill="#32ff4a" stroke="none" /><path d="M 104.64783097203109 120.47920084513623 l 7.504972260992588 33.068292542247725 a54.90924033796606,54.90924033796606 0 0,0 -0.9210046724725823,0.20072868170146885 l -6.93620517190087 -33.19225268208291" fill="#95ff23" stroke="none" /><path d="M 104.29559338865022 120.5559693870025 l 7.774958521996678 37.205991094422004 a59.00967973210217,59.00967973210217 0 0,0 -0.9933394844281274,0.1986957169803933 l -7.135122552037592 -37.33397620806526" fill="#63ff29" stroke="none" /><line stroke="#e1ed5e" stroke-width="0.3" x1="101.45913802915013" x2="101.54496967792366" y1="184.9874750549273" y2="189.98673829345242" /><path d="M 101.47630435890484 185.9873277026323 a86.0,86.0 0 0,1 -42.54439059252881,-10.42667462771756" fill="none" id="id103" stroke="none" /><text fill="#e1ed5e" style="font-size:6.75px; font-family:Arial;" text-anchor="middle"><textPath startOffset="22.145653131862474" xlink:href="#id103">July</textPath></text><line stroke="#e1ed5e" stroke-width="0.3" x1="58.13341422392154" x2="55.67067388415222" y1="173.97424548756322" y2="178.32567169271397" /><path d="M 57.64086615596768 174.84453072859336 a86.0,86.0 0 0,1 -31.369924170532247,-30.572349798747897" fill="none" id="id104" stroke="none" /><text fill="#e1ed5e" style="font-size:6.75px; font-family:Arial;" text-anchor="middle"><textPath startOffset="22.145653131862474" xlink:href="#id104">August</textPath></text><line stroke="#e1ed5e" stroke-width="0.3" x1="26.387840678322732" x2="22.057713659400548" y1="142.50000000000003" y2="145.00000000000006" /><path d="M 25.521815274538298 143.00000000000003 a86.0,86.0 0 0,1 -11.493303480769221,-40.785679425670985" fill="none" id="id105" stroke="none" /><text fill="#e1ed5e" style="font-size:6.75px; font-family:Arial;" text-anchor="middle"><textPath startOffset="21.40746469413373" xlink:href="#id105">September</textPath></text><line stroke="#e1ed5e" stroke-width="0.3" x1="15.003131293944662" x2="10.003315487706104" y1="100.72959589197737" y2="100.7725132973878" /><path d="M 14.003168132696942 100.73817937305945 a86.0,86.0 0 0,1 10.791469493833604,-42.45332614584628" fill="none" id="id106" stroke="none" /><text fill="#e1ed5e" style="font-size:6.75px; font-family:Arial;" text-anchor="middle"><textPath startOffset="22.145653131862435" xlink:href="#id106">October</textPath></text><line stroke="#e1ed5e" stroke-width="0.3" x1="26.387840678322718" x2="22.05771365940052" y1="57.49999999999999" y2="54.99999999999999" /><path d="M 25.521815274538284 56.99999999999999 a86.0,86.0 0 0,1 29.574782752854787,-30.34633250058573" fill="none" id="id107" stroke="none" /><text fill="#e1ed5e" style="font-size:6.75px; font-family:Arial;" text-anchor="middle"><textPath startOffset="21.40746469413373" xlink:href="#id107">November</textPath></text><line stroke="#e1ed5e" stroke-width="0.3" x1="56.869717070023135" x2="54.33264160355391" y1="26.7553504044142" y2="22.446841604673864" /><path d="M 56.362301976729285 25.89364864446614 a86.0,86.0 0 0,1 42.16139366436587,-11.88097634709845" fill="none" id="id108" stroke="none" /><text fill="#e1ed5e" style="font-size:6.75px; font-family:Arial;" text-anchor="middle"><textPath startOffset="22.145653131862474" xlink:href="#id108">December</textPath></text></svg>